<svg xmlns="http://www.w3.org/2000/svg" viewBox="0 0 25.91 17.27"><defs><style>.cls-1{fill:#008bbf;}</style></defs><title>Ресурс 6</title><g id="Слой_2" data-name="Слой 2"><g id="Layer_1" data-name="Layer 1"><path class="cls-1" d="M23.74,0H2.16A2.16,2.16,0,0,0,0,2.16v13a2.16,2.16,0,0,0,2.16,2.16H23.74a2.16,2.16,0,0,0,2.16-2.16v-13A2.16,2.16,0,0,0,23.74,0Zm1,16.58a.22.22,0,0,1-.29,0L16.63,9.31l-3.1,3a.81.81,0,0,1-1.12,0l-3.11-3L1.45,16.56a.22.22,0,0,1-.31-.31L8.4,8.43l-7.24-7a.22.22,0,0,1,.29-.32L13,10.57,24.48,1.15a.22.22,0,0,1,.29.32l-7.31,7,.07-.06,7.25,7.82A.22.22,0,0,1,24.77,16.58Z"/></g></g></svg>