<svg xmlns="http://www.w3.org/2000/svg" viewBox="0 0 21.48 14.32"><defs><style>.cls-1{fill:#fff;}</style></defs><title>Ресурс 3</title><g id="Слой_2" data-name="Слой 2"><g id="Layer_1" data-name="Layer 1"><path class="cls-1" d="M19.69,0H1.79A1.79,1.79,0,0,0,0,1.79V12.53a1.79,1.79,0,0,0,1.79,1.79h17.9a1.79,1.79,0,0,0,1.79-1.79V1.79A1.79,1.79,0,0,0,19.69,0Zm.85,13.74a.18.18,0,0,1-.24,0l-6.51-6-2.57,2.47a.67.67,0,0,1-.93,0L7.71,7.7l-6.5,6a.18.18,0,0,1-.25-.25L7,7,1,1.21A.18.18,0,0,1,1.19.94l9.56,7.82L20.3,1a.18.18,0,0,1,.24.27L14.48,7.05l.06,0,6,6.49A.18.18,0,0,1,20.54,13.74Z"/></g></g></svg>