<svg xmlns="http://www.w3.org/2000/svg" viewBox="0 0 18.94 18.93"><defs><style>.cls-1{fill:#fff;}</style></defs><title>Ресурс 5</title><g id="Слой_2" data-name="Слой 2"><g id="Layer_1" data-name="Layer 1"><path class="cls-1" d="M18.94,14.8a5.23,5.23,0,0,1-2.59,4.08.64.64,0,0,1-.27.06.62.62,0,0,1-.2,0l-.53-.15C12.57,18,4.11,15.64,0,3a.64.64,0,0,1,0-.35C0,2.56.55.58,4,0a.63.63,0,0,1,.38.05c.13.06,3.08,1.45,3.33,4.28a.64.64,0,0,1-.17.49A6.92,6.92,0,0,0,5.74,7.55c.08.65,2.13,4.11,5.81,5.9a8.63,8.63,0,0,0,2.74-1.71.63.63,0,0,1,.57-.14,6.12,6.12,0,0,1,4,2.79A.64.64,0,0,1,18.94,14.8Z"/></g></g></svg>